<svg xmlns="http://www.w3.org/2000/svg" width="16.002" height="16.005" viewBox="0 0 16.002 16.005">
  <g id="icon-arrow-up" transform="translate(-1.999 -1.998)">
    <rect id="長方形_1727" data-name="長方形 1727" width="16" height="16" transform="translate(2 2)" fill="none"/>
    <g id="グループ_3074" data-name="グループ 3074">
      <path id="パス_7071" data-name="パス 7071" d="M9.22,13.71,6.54,16.33V2.49A.5.5,0,0,0,6,2a.49.49,0,0,0-.5.49V16.33L2.85,13.71a.5.5,0,0,0-.7,0,.47.47,0,0,0,0,.69l3.53,3.46a.51.51,0,0,0,.71,0L9.92,14.4a.47.47,0,0,0,0-.69A.5.5,0,0,0,9.22,13.71Z"  fill="currentColor"/>
    </g>
  </g>
</svg>
